<?xml version="1.0" standalone="no"?>
<svg xmlns:xlink="http://www.w3.org/1999/xlink" id="wave" style="transform:rotate(180deg); transition: 0.3s" viewBox="0 0 1440 400" version="1.1" xmlns="http://www.w3.org/2000/svg"><defs><linearGradient id="sw-gradient-0" x1="0" x2="0" y1="1" y2="0"><stop stop-color="rgba(243, 106, 62, 1)" offset="0%"/><stop stop-color="rgba(255, 179, 11, 1)" offset="100%"/></linearGradient></defs><path style="transform:translate(0, 0px); opacity:1" fill="url(#sw-gradient-0)" d="M0,120L40,113.3C80,107,160,93,240,126.7C320,160,400,240,480,226.7C560,213,640,107,720,66.7C800,27,880,53,960,93.3C1040,133,1120,187,1200,186.7C1280,187,1360,133,1440,133.3C1520,133,1600,187,1680,226.7C1760,267,1840,293,1920,306.7C2000,320,2080,320,2160,326.7C2240,333,2320,347,2400,333.3C2480,320,2560,280,2640,260C2720,240,2800,240,2880,226.7C2960,213,3040,187,3120,160C3200,133,3280,107,3360,106.7C3440,107,3520,133,3600,180C3680,227,3760,293,3840,313.3C3920,333,4000,307,4080,273.3C4160,240,4240,200,4320,153.3C4400,107,4480,53,4560,66.7C4640,80,4720,160,4800,200C4880,240,4960,240,5040,206.7C5120,173,5200,107,5280,73.3C5360,40,5440,40,5520,33.3C5600,27,5680,13,5720,6.7L5760,0L5760,400L5720,400C5680,400,5600,400,5520,400C5440,400,5360,400,5280,400C5200,400,5120,400,5040,400C4960,400,4880,400,4800,400C4720,400,4640,400,4560,400C4480,400,4400,400,4320,400C4240,400,4160,400,4080,400C4000,400,3920,400,3840,400C3760,400,3680,400,3600,400C3520,400,3440,400,3360,400C3280,400,3200,400,3120,400C3040,400,2960,400,2880,400C2800,400,2720,400,2640,400C2560,400,2480,400,2400,400C2320,400,2240,400,2160,400C2080,400,2000,400,1920,400C1840,400,1760,400,1680,400C1600,400,1520,400,1440,400C1360,400,1280,400,1200,400C1120,400,1040,400,960,400C880,400,800,400,720,400C640,400,560,400,480,400C400,400,320,400,240,400C160,400,80,400,40,400L0,400Z"/></svg>